/* XPM */
static char * AShotExplo_xpm[] = {
"30 40 3 1",
" 	c None",
".	c #FFFFFF",
"+	c #000000",
"..........+++++...............",
"..........+++++...............",
"..........+++++...............",
"..........+++++...............",
"..........+++++...............",
"+++++...............+++++.....",
"+++++...............+++++.....",
"+++++...............+++++.....",
"+++++...............+++++.....",
"+++++...............+++++.....",
"..........++++++++++.....+++++",
"..........++++++++++.....+++++",
"..........++++++++++.....+++++",
"..........++++++++++.....+++++",
"..........++++++++++.....+++++",
".....++++++++++++++++++++.....",
".....++++++++++++++++++++.....",
".....++++++++++++++++++++.....",
".....++++++++++++++++++++.....",
".....++++++++++++++++++++.....",
"+++++.....+++++++++++++++.....",
"+++++.....+++++++++++++++.....",
"+++++.....+++++++++++++++.....",
"+++++.....+++++++++++++++.....",
"+++++.....+++++++++++++++.....",
".....+++++++++++++++++++++++++",
".....+++++++++++++++++++++++++",
".....+++++++++++++++++++++++++",
".....+++++++++++++++++++++++++",
".....+++++++++++++++++++++++++",
"+++++.....+++++++++++++++.....",
"+++++.....+++++++++++++++.....",
"+++++.....+++++++++++++++.....",
"+++++.....+++++++++++++++.....",
"+++++.....+++++++++++++++.....",
".....+++++.....+++++.....+++++",
".....+++++.....+++++.....+++++",
".....+++++.....+++++.....+++++",
".....+++++.....+++++.....+++++",
".....+++++.....+++++.....+++++"};
